<svg width="32" height="32" viewBox="0 0 32 32" fill="none" xmlns="http://www.w3.org/2000/svg">
  <circle cx="16" cy="16" r="16" fill="#F7931A"/>
  <path d="M22.1568 13.8928C22.4416 12.1152 21.1712 11.1744 19.4368 10.5856L20.0128 8.352L18.6848 7.9936L18.1248 10.1696C17.7664 10.0768 17.3984 9.9904 17.0336 9.904L17.5968 7.712L16.2688 7.3536L15.6928 9.5872C15.3968 9.5168 15.1072 9.4464 14.8272 9.3696L14.8304 9.3568L13.0048 8.8608L12.6272 10.2816C12.6272 10.2816 13.6032 10.5248 13.5808 10.5376C14.1152 10.6688 14.2016 11.0336 14.1856 11.3168L13.5264 13.8432C13.5648 13.8528 13.6128 13.8656 13.6704 13.8864C13.6256 13.8768 13.5776 13.8656 13.5264 13.8528L12.6176 17.2992C12.5504 17.472 12.3808 17.7344 11.9904 17.6416C12.0032 17.6624 11.0112 17.408 11.0112 17.408L10.3168 18.9376L11.9872 19.3984C12.3168 19.4784 12.6368 19.5616 12.9504 19.64L12.368 21.8976L13.6928 22.256L14.2688 20.0224C14.6432 20.1312 15.008 20.2336 15.3632 20.3296L14.7904 22.5536L16.1184 22.912L16.7008 20.656C18.8768 21.0816 20.4992 20.9152 21.1808 19.008C21.7344 17.4496 21.1584 16.5472 20.0096 15.9936C20.8352 15.7888 21.4528 15.216 21.6128 14.2016C21.8144 12.9184 21.1968 12.1856 20.1088 11.8336L22.1568 13.8928ZM18.3616 18.2912C18.0384 19.648 15.9648 18.9632 15.2704 18.7808L15.8688 16.4512C16.5632 16.6336 18.7024 16.864 18.3616 18.2912ZM18.6848 14.176C18.3936 15.4016 16.6976 14.8064 16.1216 14.6592L16.6592 12.5792C17.2352 12.7264 19.0016 12.8832 18.6848 14.176Z" fill="white"/>
</svg>
